D:\school\WTK\thesis\model\3dpredictsim\Results\test_WL_v2\Fal_s1_bCst_WL30_ig24_v4_GRF.mot
nRows=20
nColumns=19

name D:\school\WTK\thesis\model\3dpredictsim\Results\test_WL_v2\Fal_s1_bCst_WL30_ig24_v4_GRF.mot
datacolumns 19
datarows 20
range 0.0000000000 0.2090546058
endheader
time 	ground_force_vx	ground_force_vy	ground_force_vz	ground_force_px	ground_force_py	ground_force_pz	1_ground_force_vx	1_ground_force_vy	1_ground_force_vz	1_ground_force_px	1_ground_force_py	1_ground_force_pz	ground_torque_x	ground_torque_y	ground_torque_z	1_ground_torque_x	1_ground_torque_y	1_ground_torque_z
        0.0000000000	      -48.6873816252	       37.3570738748	       12.8417634863	        0.1803678984	        0.0000000000	        0.0413193691	       92.5920076593	      546.4055361969	       -0.2894702505	       -0.3021452842	        0.0000000000	       -0.0418029620	        0.0000000000	        0.0000000000	        0.0000000000	        0.0000000000	        0.0000000000	        0.0000000000	
        0.0110028740	      -85.6371796889	       90.5888932145	       39.6237987869	        0.1883902122	        0.0000000000	        0.0393112291	       85.1872147467	      487.5867443791	       -2.9491003948	       -0.2999263792	        0.0000000000	       -0.0413666047	        0.0000000000	        0.0000000000	        0.0000000000	        0.0000000000	        0.0000000000	        0.0000000000	
        0.0220057480	      -33.8843292077	      193.2716358499	       28.9123310073	        0.1933823376	        0.0000000000	        0.0374384684	       74.5725133091	      413.4172515805	       -5.3695199557	       -0.2966900963	        0.0000000000	       -0.0405574762	        0.0000000000	        0.0000000000	        0.0000000000	        0.0000000000	        0.0000000000	        0.0000000000	
        0.0330086220	      -26.2536015357	      309.3325389878	        4.3412661547	        0.1957247020	        0.0000000000	        0.0368695589	       61.6422840145	      336.7771261448	       -4.0462405514	       -0.2920917844	        0.0000000000	       -0.0391351827	        0.0000000000	        0.0000000000	        0.0000000000	        0.0000000000	        0.0000000000	        0.0000000000	
        0.0440114959	      -39.2903178576	      426.6783636172	       -2.4386223616	        0.1989973177	        0.0000000000	        0.0375650914	       41.1901451804	      256.6028464216	       -3.2614225880	       -0.2850224104	        0.0000000000	       -0.0366440198	        0.0000000000	        0.0000000000	        0.0000000000	        0.0000000000	        0.0000000000	        0.0000000000	
        0.0550143699	      -63.7776124257	      559.4481415562	       -7.2745767430	        0.2065098282	        0.0000000000	        0.0400223062	       17.7503451894	      170.6307943178	       -5.7401761538	       -0.2722335554	        0.0000000000	       -0.0315632258	        0.0000000000	        0.0000000000	        0.0000000000	        0.0000000000	        0.0000000000	        0.0000000000	
        0.0660172439	      -81.5641719611	      663.7697758529	      -10.1160935034	        0.2126688479	        0.0000000000	        0.0419857415	        5.3448992037	      126.5432167157	       -9.6426435780	       -0.2627224503	        0.0000000000	       -0.0273683813	        0.0000000000	        0.0000000000	        0.0000000000	        0.0000000000	        0.0000000000	        0.0000000000	
        0.0770201179	      -87.8912585560	      715.0439189319	      -11.7233119848	        0.2171554188	        0.0000000000	        0.0433069286	        3.4637840884	      100.8037762602	      -10.6368608224	       -0.2623738803	        0.0000000000	       -0.0275211334	        0.0000000000	        0.0000000000	        0.0000000000	        0.0000000000	        0.0000000000	        0.0000000000	
        0.0880229919	      -85.6784899861	      726.9685011297	      -11.9450969071	        0.2206284383	        0.0000000000	        0.0442065643	       -0.0113939725	       70.5459550099	      -11.3072552000	       -0.2618944284	        0.0000000000	       -0.0276463346	        0.0000000000	        0.0000000000	        0.0000000000	        0.0000000000	        0.0000000000	        0.0000000000	
        0.0990258659	      -80.6271594068	      721.6577931893	      -11.2282959446	        0.2238117792	        0.0000000000	        0.0448209232	       -5.0189192340	       37.2030348730	       -8.9629477641	       -0.2616844419	        0.0000000000	       -0.0276591366	        0.0000000000	        0.0000000000	        0.0000000000	        0.0000000000	        0.0000000000	        0.0000000000	
        0.1100287399	      -74.3726219056	      714.8014126657	      -11.3988267535	        0.2272537286	        0.0000000000	        0.0451708267	       -4.5956294963	        5.9426007603	       -1.5311339710	        0.0000000000	        0.0000000000	        0.0000000000	        0.0000000000	        0.0000000000	        0.0000000000	        0.0000000000	        0.0000000000	        0.0000000000	
        0.1210316139	      -65.8023523043	      705.1322601214	      -12.3745544132	        0.2309717133	        0.0000000000	        0.0453760468	        0.0031092260	       -0.0027579178	        0.0000349732	        0.0000000000	        0.0000000000	        0.0000000000	        0.0000000000	        0.0000000000	        0.0000000000	        0.0000000000	        0.0000000000	        0.0000000000	
        0.1320344878	      -58.5996841197	      691.3033766924	      -13.3595566555	        0.2356695411	        0.0000000000	        0.0454582569	        0.0003661395	       -0.0002758105	       -0.0000093650	        0.0000000000	        0.0000000000	        0.0000000000	        0.0000000000	        0.0000000000	        0.0000000000	        0.0000000000	        0.0000000000	        0.0000000000	
        0.1430373618	      -52.4809491799	      674.8317734776	      -14.4183574051	        0.2409685580	        0.0000000000	        0.0454220739	        0.0007082121	       -0.0004675362	       -0.0000308920	        0.0000000000	        0.0000000000	        0.0000000000	        0.0000000000	        0.0000000000	        0.0000000000	        0.0000000000	        0.0000000000	        0.0000000000	
        0.1540402358	      -46.0916132266	      654.0691684978	      -15.1442860089	        0.2460342261	        0.0000000000	        0.0454183386	        0.0078008777	       -0.0046570598	       -0.0004128352	        0.0000000000	        0.0000000000	        0.0000000000	        0.0000000000	        0.0000000000	        0.0000000000	        0.0000000000	        0.0000000000	        0.0000000000	
        0.1650431098	      -39.4339045187	      632.0299454095	      -15.7150004604	        0.2506977442	        0.0000000000	        0.0454807206	       -0.0334192522	        0.0183763593	        0.0019858604	        0.0000000000	        0.0000000000	        0.0000000000	        0.0000000000	        0.0000000000	        0.0000000000	        0.0000000000	        0.0000000000	        0.0000000000	
        0.1760459838	      -32.9564566957	      611.4259888091	      -16.3024642107	        0.2551375688	        0.0000000000	        0.0455901924	       -0.0256076974	        0.0131308285	        0.0016553981	        0.0000000000	        0.0000000000	        0.0000000000	        0.0000000000	        0.0000000000	        0.0000000000	        0.0000000000	        0.0000000000	        0.0000000000	
        0.1870488578	      -27.1290320424	      593.8222546421	      -16.8858707529	        0.2597606728	        0.0000000000	        0.0457226241	       -0.0170826223	        0.0082539588	        0.0011761418	        0.0000000000	        0.0000000000	        0.0000000000	        0.0000000000	        0.0000000000	        0.0000000000	        0.0000000000	        0.0000000000	        0.0000000000	
        0.1980517318	      -23.3385871516	      580.5421817925	      -17.2918595929	        0.2646557729	        0.0000000000	        0.0458526883	       -0.0141100228	        0.0064807656	        0.0010173423	        0.0000000000	        0.0000000000	        0.0000000000	        0.0000000000	        0.0000000000	        0.0000000000	        0.0000000000	        0.0000000000	        0.0000000000	
        0.2090546058	      -20.8110267835	      571.6854833654	      -17.6557279140	        0.2696849450	        0.0000000000	        0.0459626905	       -0.0153598882	        0.0067548505	        0.0011457695	        0.0000000000	        0.0000000000	        0.0000000000	        0.0000000000	        0.0000000000	        0.0000000000	        0.0000000000	        0.0000000000	        0.0000000000	
